<?xml version="1.0" encoding="utf-8"?>
<!-- Generator: Adobe Illustrator 21.0.2, SVG Export Plug-In . SVG Version: 6.00 Build 0)  -->
<svg version="1.1" id="Calque_1" xmlns="http://www.w3.org/2000/svg" xmlns:xlink="http://www.w3.org/1999/xlink" x="0px" y="0px"
	 viewBox="0 0 421.3 144.6" style="enable-background:new 0 0 421.3 144.6;" xml:space="preserve">
<style type="text/css">
	.st0{fill:#FFFFFF;}
</style>
<g>
	<polygon class="st0" points="131.3,89.7 131.3,38.3 117,27.1 83.5,0.7 41.9,32.2 1,63 1,73 1,114.9 82.7,53 	"/>
	<polygon class="st0" points="49.7,22.1 49.7,4.1 14.2,4.1 14.2,48.4 	"/>
	<path class="st0" d="M8.8,133.2c-0.2,0-0.3,0-0.3,0.2l-3.5,9c-0.1,0.4-0.3,0.8-0.3,1.1h0c-0.1-0.2-0.2-0.7-0.3-1.1l-3.5-9
		c0-0.1-0.1-0.2-0.3-0.2H0.1c-0.1,0-0.2,0.1-0.1,0.2l4.2,10.8c0,0.1,0.1,0.2,0.3,0.2h0.3c0.1,0,0.2,0,0.3-0.2l4.2-10.8
		c0-0.1,0-0.2-0.1-0.2H8.8z"/>
	<path class="st0" d="M16.8,133c-2.8,0-4.2,1.5-4.2,3.9v3.8c0,2.4,1.5,3.9,4.2,3.9c2.7,0,4.2-1.5,4.2-3.9v-3.8
		C21,134.5,19.5,133,16.8,133z M20.3,140.7c0,2-1.2,3.2-3.5,3.2c-2.3,0-3.5-1.2-3.5-3.2v-3.8c0-2,1.2-3.2,3.5-3.2
		c2.3,0,3.5,1.2,3.5,3.2V140.7z"/>
	<path class="st0" d="M32.1,133.2h-7.5c-0.2,0-0.2,0-0.2,0.2v0.3c0,0.1,0,0.2,0.2,0.2H28v10.3c0,0.2,0,0.2,0.2,0.2h0.3
		c0.1,0,0.2,0,0.2-0.2v-10.3h3.4c0.2,0,0.2,0,0.2-0.2v-0.3C32.3,133.3,32.3,133.2,32.1,133.2z"/>
	<path class="st0" d="M42.6,140.7c-0.3-0.6-0.7-1-1.3-1.3c1.7-0.1,2.8-1.2,2.8-3c0-2-1.2-3.1-3.2-3.1h-4.5c-0.2,0-0.2,0-0.2,0.2
		v10.8c0,0.2,0,0.2,0.2,0.2h0.3c0.1,0,0.2,0,0.2-0.2v-4.7h2.6c1.3,0,1.9,0.5,2.4,1.5l1.6,3.2c0.1,0.1,0.1,0.2,0.4,0.2h0.3
		c0.2,0,0.2-0.1,0.1-0.2L42.6,140.7z M40.8,138.8h-3.9v-4.9h3.9c1.6,0,2.5,0.9,2.5,2.5C43.3,137.9,42.4,138.8,40.8,138.8z"/>
	<path class="st0" d="M55.5,143.7h-6.1v-4.6h5.2c0.1,0,0.2,0,0.2-0.2v-0.3c0-0.1,0-0.2-0.2-0.2h-5.2v-4.5h5.9c0.2,0,0.2,0,0.2-0.2
		v-0.3c0-0.2,0-0.2-0.2-0.2h-6.4c-0.2,0-0.2,0-0.2,0.2v10.8c0,0.2,0,0.2,0.2,0.2h6.6c0.1,0,0.2,0,0.2-0.2v-0.3
		C55.7,143.8,55.6,143.7,55.5,143.7z"/>
	<path class="st0" d="M72.6,140.7c-0.3-0.6-0.7-1-1.3-1.3c1.7-0.1,2.8-1.2,2.8-3c0-2-1.2-3.1-3.2-3.1h-4.5c-0.2,0-0.2,0-0.2,0.2
		v10.8c0,0.2,0,0.2,0.2,0.2h0.3c0.1,0,0.2,0,0.2-0.2v-4.7h2.6c1.3,0,1.9,0.5,2.4,1.5l1.6,3.2c0.1,0.1,0.1,0.2,0.4,0.2h0.3
		c0.2,0,0.2-0.1,0.1-0.2L72.6,140.7z M70.8,138.8h-3.9v-4.9h3.9c1.6,0,2.5,0.9,2.5,2.5C73.3,137.9,72.4,138.8,70.8,138.8z"/>
	<path class="st0" d="M83.1,130.3l-2.7,1.7c-0.1,0.1-0.1,0.1,0,0.2l0.1,0.1c0,0.1,0.1,0.1,0.3,0l2.8-1.6c0.1-0.1,0.1-0.1,0-0.2
		l-0.1-0.2C83.4,130.2,83.2,130.3,83.1,130.3z"/>
	<path class="st0" d="M85.4,143.7h-6.1v-4.6h5.2c0.1,0,0.2,0,0.2-0.2v-0.3c0-0.1,0-0.2-0.2-0.2h-5.2v-4.5h5.9c0.2,0,0.2,0,0.2-0.2
		v-0.3c0-0.2,0-0.2-0.2-0.2h-6.4c-0.2,0-0.2,0-0.2,0.2v10.8c0,0.2,0,0.2,0.2,0.2h6.6c0.1,0,0.2,0,0.2-0.2v-0.3
		C85.6,143.8,85.6,143.7,85.4,143.7z"/>
	<path class="st0" d="M93.8,138.4c-1.8-0.2-3.5-0.5-3.5-2.3c0-1.5,1.2-2.4,3.2-2.4c1.8,0,2.8,0.7,3.5,2.1c0.1,0.1,0.1,0.1,0.3,0.1
		l0.3-0.1c0.1,0,0.2-0.1,0.1-0.3c-0.8-1.7-2-2.4-4.1-2.4c-2.5,0-3.9,1.2-3.9,3.1c0,2.4,2.1,2.8,4.1,3c1.7,0.2,3.3,0.4,3.3,2.3
		c0,1.7-1.2,2.5-3.4,2.5c-1.8,0-2.9-0.7-3.6-2.3c-0.1-0.2-0.1-0.2-0.3-0.1l-0.3,0.1c-0.2,0.1-0.2,0.1-0.1,0.3c0.8,1.9,2,2.8,4.2,2.8
		c2.7,0,4.1-1.2,4.1-3.2C97.7,139,95.7,138.6,93.8,138.4z"/>
	<path class="st0" d="M108.9,143.7h-6.1v-4.6h5.2c0.1,0,0.2,0,0.2-0.2v-0.3c0-0.1,0-0.2-0.2-0.2h-5.2v-4.5h5.9c0.2,0,0.2,0,0.2-0.2
		v-0.3c0-0.2,0-0.2-0.2-0.2h-6.4c-0.2,0-0.2,0-0.2,0.2v10.8c0,0.2,0,0.2,0.2,0.2h6.6c0.1,0,0.2,0,0.2-0.2v-0.3
		C109.1,143.8,109.1,143.7,108.9,143.7z"/>
	<path class="st0" d="M117.5,133.3c0-0.1-0.1-0.2-0.3-0.2h-0.3c-0.1,0-0.2,0-0.3,0.2l-4.4,10.9c0,0.1,0,0.2,0.1,0.2h0.3
		c0.2,0,0.3,0,0.4-0.2l1.4-3.5h5.2l1.4,3.5c0,0.1,0.1,0.2,0.3,0.2h0.3c0.2,0,0.2-0.1,0.2-0.2L117.5,133.3z M114.7,140.1l2.2-5.6
		c0.1-0.3,0.1-0.6,0.1-0.7h0c0,0.1,0,0.4,0.2,0.7l2.2,5.6H114.7z"/>
	<path class="st0" d="M133.5,133.2h-0.3c-0.1,0-0.2,0-0.2,0.2v7.2c0,2-1.1,3.3-3.4,3.3c-2.3,0-3.4-1.3-3.4-3.3v-7.2
		c0-0.2,0-0.2-0.2-0.2h-0.3c-0.2,0-0.2,0-0.2,0.2v7.2c0,2.4,1.4,4,4.1,4c2.8,0,4.1-1.6,4.1-4v-7.2
		C133.7,133.3,133.6,133.2,133.5,133.2z"/>
	<path class="st0" d="M148.2,133.2H145c-0.2,0-0.2,0-0.2,0.2v10.8c0,0.2,0,0.2,0.2,0.2h3.2c2.9,0,4.6-1.6,4.6-4.1v-2.9
		C152.7,134.8,151.1,133.2,148.2,133.2z M152,140.2c0,2.2-1.4,3.5-3.8,3.5h-2.7v-9.8h2.7c2.5,0,3.8,1.3,3.8,3.5V140.2z"/>
	<path class="st0" d="M164.1,143.7H158v-4.6h5.2c0.1,0,0.2,0,0.2-0.2v-0.3c0-0.1,0-0.2-0.2-0.2H158v-4.5h5.9c0.2,0,0.2,0,0.2-0.2
		v-0.3c0-0.2,0-0.2-0.2-0.2h-6.4c-0.2,0-0.2,0-0.2,0.2v10.8c0,0.2,0,0.2,0.2,0.2h6.6c0.1,0,0.2,0,0.2-0.2v-0.3
		C164.3,143.8,164.3,143.7,164.1,143.7z"/>
	<path class="st0" d="M182.5,141.4c-0.1,0-0.2,0-0.3,0.1c-0.5,1.6-1.4,2.4-3.5,2.4c-2.3,0-3.5-1.2-3.5-3.2v-3.9c0-2,1.2-3.2,3.5-3.2
		c2,0,3,0.7,3.4,2.3c0,0.1,0.1,0.2,0.3,0.1l0.3-0.1c0.1-0.1,0.2-0.1,0.1-0.3c-0.5-1.8-1.7-2.7-4.1-2.7c-2.8,0-4.2,1.5-4.2,3.9v3.9
		c0,2.4,1.5,3.9,4.2,3.9c2.5,0,3.6-1,4.2-2.8c0-0.1,0-0.2-0.1-0.3L182.5,141.4z"/>
	<path class="st0" d="M191.1,133c-2.8,0-4.2,1.5-4.2,3.9v3.8c0,2.4,1.5,3.9,4.2,3.9c2.7,0,4.2-1.5,4.2-3.9v-3.8
		C195.3,134.5,193.8,133,191.1,133z M194.6,140.7c0,2-1.2,3.2-3.5,3.2c-2.3,0-3.5-1.2-3.5-3.2v-3.8c0-2,1.2-3.2,3.5-3.2
		c2.3,0,3.5,1.2,3.5,3.2V140.7z"/>
	<path class="st0" d="M208,133.2h-0.3c-0.2,0-0.2,0-0.2,0.2v7.1c0,1.1,0.1,2.1,0.1,2.8h0c-0.4-0.5-0.9-1.4-1.4-2.2l-5.4-7.7
		c0,0-0.1-0.1-0.2-0.1h-0.3c-0.2,0-0.2,0-0.2,0.2v10.8c0,0.2,0,0.2,0.2,0.2h0.3c0.1,0,0.2,0,0.2-0.2v-7.3c0-1-0.1-2-0.1-2.6h0
		c0.3,0.5,0.8,1.3,1.3,2l5.6,8c0.1,0.1,0.1,0.1,0.2,0.1h0.3c0.1,0,0.2,0,0.2-0.2v-10.8C208.1,133.3,208.1,133.2,208,133.2z"/>
	<path class="st0" d="M217,138.4c-1.8-0.2-3.5-0.5-3.5-2.3c0-1.5,1.2-2.4,3.2-2.4c1.8,0,2.8,0.7,3.5,2.1c0.1,0.1,0.1,0.1,0.3,0.1
		l0.3-0.1c0.1,0,0.2-0.1,0.1-0.3c-0.8-1.7-2-2.4-4.1-2.4c-2.5,0-3.9,1.2-3.9,3.1c0,2.4,2.1,2.8,4.1,3c1.7,0.2,3.3,0.4,3.3,2.3
		c0,1.7-1.2,2.5-3.4,2.5c-1.8,0-2.9-0.7-3.6-2.3c-0.1-0.2-0.1-0.2-0.3-0.1l-0.3,0.1c-0.2,0.1-0.2,0.1-0.1,0.3c0.8,1.9,2,2.8,4.2,2.8
		c2.7,0,4.1-1.2,4.1-3.2C220.9,139,218.9,138.6,217,138.4z"/>
	<path class="st0" d="M232.1,143.7H226v-4.6h5.2c0.1,0,0.2,0,0.2-0.2v-0.3c0-0.1,0-0.2-0.2-0.2H226v-4.5h5.9c0.2,0,0.2,0,0.2-0.2
		v-0.3c0-0.2,0-0.2-0.2-0.2h-6.4c-0.2,0-0.2,0-0.2,0.2v10.8c0,0.2,0,0.2,0.2,0.2h6.6c0.1,0,0.2,0,0.2-0.2v-0.3
		C232.3,143.8,232.2,143.7,232.1,143.7z"/>
	<path class="st0" d="M237.1,133.2h-0.3c-0.2,0-0.2,0-0.2,0.2v10.8c0,0.2,0,0.2,0.2,0.2h0.3c0.1,0,0.2,0,0.2-0.2v-10.8
		C237.3,133.3,237.3,133.2,237.1,133.2z"/>
	<path class="st0" d="M248.7,143.7H243v-10.3c0-0.2,0-0.2-0.2-0.2h-0.3c-0.2,0-0.2,0-0.2,0.2v10.8c0,0.2,0,0.2,0.2,0.2h6.2
		c0.1,0,0.2,0,0.2-0.2v-0.3C248.9,143.8,248.8,143.7,248.7,143.7z"/>
	<path class="st0" d="M259.2,143.7h-5.7v-10.3c0-0.2,0-0.2-0.2-0.2H253c-0.2,0-0.2,0-0.2,0.2v10.8c0,0.2,0,0.2,0.2,0.2h6.2
		c0.1,0,0.2,0,0.2-0.2v-0.3C259.4,143.8,259.4,143.7,259.2,143.7z"/>
	<path class="st0" d="M270.1,143.7H264v-4.6h5.2c0.1,0,0.2,0,0.2-0.2v-0.3c0-0.1,0-0.2-0.2-0.2H264v-4.5h5.9c0.2,0,0.2,0,0.2-0.2
		v-0.3c0-0.2,0-0.2-0.2-0.2h-6.4c-0.2,0-0.2,0-0.2,0.2v10.8c0,0.2,0,0.2,0.2,0.2h6.6c0.1,0,0.2,0,0.2-0.2v-0.3
		C270.3,143.8,270.3,143.7,270.1,143.7z"/>
	<path class="st0" d="M281,140.7c-0.3-0.6-0.7-1-1.3-1.3c1.7-0.1,2.8-1.2,2.8-3c0-2-1.2-3.1-3.2-3.1h-4.5c-0.2,0-0.2,0-0.2,0.2v10.8
		c0,0.2,0,0.2,0.2,0.2h0.3c0.1,0,0.2,0,0.2-0.2v-4.7h2.6c1.3,0,1.9,0.5,2.4,1.5l1.6,3.2c0.1,0.1,0.1,0.2,0.4,0.2h0.3
		c0.2,0,0.2-0.1,0.1-0.2L281,140.7z M279.3,138.8h-3.9v-4.9h3.9c1.6,0,2.5,0.9,2.5,2.5C281.8,137.9,280.8,138.8,279.3,138.8z"/>
	<path class="st0" d="M290.9,138.4c-1.8-0.2-3.5-0.5-3.5-2.3c0-1.5,1.2-2.4,3.2-2.4c1.8,0,2.8,0.7,3.5,2.1c0.1,0.1,0.1,0.1,0.3,0.1
		l0.3-0.1c0.1,0,0.2-0.1,0.1-0.3c-0.8-1.7-2-2.4-4.1-2.4c-2.5,0-3.9,1.2-3.9,3.1c0,2.4,2.1,2.8,4.1,3c1.7,0.2,3.3,0.4,3.3,2.3
		c0,1.7-1.2,2.5-3.4,2.5c-1.8,0-2.9-0.7-3.6-2.3c-0.1-0.2-0.1-0.2-0.3-0.1l-0.3,0.1c-0.2,0.1-0.2,0.1-0.1,0.3c0.8,1.9,2,2.8,4.2,2.8
		c2.7,0,4.1-1.2,4.1-3.2C294.8,139,292.8,138.6,290.9,138.4z"/>
	<path class="st0" d="M305.9,133.2h-0.3c-0.2,0-0.2,0-0.2,0.2v10.8c0,0.2,0,0.2,0.2,0.2h0.3c0.1,0,0.2,0,0.2-0.2v-10.8
		C306.1,133.3,306.1,133.2,305.9,133.2z"/>
	<path class="st0" d="M320.8,133.2h-0.3c-0.2,0-0.2,0-0.3,0.2l-4.2,7.4l-4.2-7.4c-0.1-0.1-0.1-0.2-0.3-0.2h-0.3
		c-0.2,0-0.2,0-0.2,0.2v10.8c0,0.2,0,0.2,0.2,0.2h0.3c0.2,0,0.2,0,0.2-0.2V137c0-0.8,0-1.7-0.1-2.6h0c0.4,0.8,0.7,1.5,1.1,2.2l2.8,5
		c0.1,0.1,0.1,0.2,0.3,0.2h0.2c0.1,0,0.2,0,0.3-0.2l2.8-5c0.4-0.7,0.8-1.4,1.2-2.2h0c-0.1,0.9-0.1,1.8-0.1,2.6v7.2
		c0,0.2,0,0.2,0.2,0.2h0.3c0.1,0,0.2,0,0.2-0.2v-10.8C321,133.3,321,133.2,320.8,133.2z"/>
	<path class="st0" d="M335.7,133.2h-0.3c-0.2,0-0.2,0-0.3,0.2l-4.2,7.4l-4.2-7.4c-0.1-0.1-0.1-0.2-0.3-0.2h-0.3
		c-0.2,0-0.2,0-0.2,0.2v10.8c0,0.2,0,0.2,0.2,0.2h0.3c0.2,0,0.2,0,0.2-0.2V137c0-0.8,0-1.7-0.1-2.6h0c0.4,0.8,0.7,1.5,1.1,2.2l2.8,5
		c0.1,0.1,0.1,0.2,0.3,0.2h0.2c0.1,0,0.2,0,0.3-0.2l2.8-5c0.4-0.7,0.8-1.4,1.2-2.2h0c-0.1,0.9-0.1,1.8-0.1,2.6v7.2
		c0,0.2,0,0.2,0.2,0.2h0.3c0.1,0,0.2,0,0.2-0.2v-10.8C335.9,133.3,335.8,133.2,335.7,133.2z"/>
	<path class="st0" d="M344.7,133c-2.8,0-4.2,1.5-4.2,3.9v3.8c0,2.4,1.5,3.9,4.2,3.9c2.7,0,4.2-1.5,4.2-3.9v-3.8
		C348.9,134.5,347.5,133,344.7,133z M348.2,140.7c0,2-1.2,3.2-3.5,3.2c-2.3,0-3.5-1.2-3.5-3.2v-3.8c0-2,1.2-3.2,3.5-3.2
		c2.3,0,3.5,1.2,3.5,3.2V140.7z"/>
	<path class="st0" d="M359.6,138.6L359.6,138.6c1.1-0.4,1.6-1.3,1.6-2.6c0-1.8-1.1-2.8-3-2.8h-4.5c-0.2,0-0.2,0-0.2,0.2v10.8
		c0,0.2,0,0.2,0.2,0.2h4.7c1.9,0,3.1-1.1,3.1-3C361.6,139.9,360.8,138.9,359.6,138.6z M354.3,133.9h3.9c1.5,0,2.3,0.8,2.3,2.2
		c0,1.5-0.8,2.2-2.3,2.2h-3.9V133.9z M358.4,143.7h-4.1V139h4.1c1.5,0,2.4,0.8,2.4,2.3C360.8,142.9,359.9,143.7,358.4,143.7z"/>
	<path class="st0" d="M366.5,133.2h-0.3c-0.2,0-0.2,0-0.2,0.2v10.8c0,0.2,0,0.2,0.2,0.2h0.3c0.1,0,0.2,0,0.2-0.2v-10.8
		C366.7,133.3,366.7,133.2,366.5,133.2z"/>
	<path class="st0" d="M378.1,143.7h-5.7v-10.3c0-0.2,0-0.2-0.2-0.2h-0.3c-0.2,0-0.2,0-0.2,0.2v10.8c0,0.2,0,0.2,0.2,0.2h6.2
		c0.1,0,0.2,0,0.2-0.2v-0.3C378.3,143.8,378.3,143.7,378.1,143.7z"/>
	<path class="st0" d="M382.7,133.2h-0.3c-0.2,0-0.2,0-0.2,0.2v10.8c0,0.2,0,0.2,0.2,0.2h0.3c0.1,0,0.2,0,0.2-0.2v-10.8
		C382.9,133.3,382.9,133.2,382.7,133.2z"/>
	<path class="st0" d="M394.7,143.7h-6.1v-4.6h5.2c0.1,0,0.2,0,0.2-0.2v-0.3c0-0.1,0-0.2-0.2-0.2h-5.2v-4.5h5.9c0.2,0,0.2,0,0.2-0.2
		v-0.3c0-0.2,0-0.2-0.2-0.2h-6.4c-0.2,0-0.2,0-0.2,0.2v10.8c0,0.2,0,0.2,0.2,0.2h6.6c0.1,0,0.2,0,0.2-0.2v-0.3
		C394.9,143.8,394.8,143.7,394.7,143.7z"/>
	<path class="st0" d="M405.6,140.7c-0.3-0.6-0.7-1-1.3-1.3c1.7-0.1,2.8-1.2,2.8-3c0-2-1.2-3.1-3.2-3.1h-4.5c-0.2,0-0.2,0-0.2,0.2
		v10.8c0,0.2,0,0.2,0.2,0.2h0.3c0.1,0,0.2,0,0.2-0.2v-4.7h2.6c1.3,0,1.9,0.5,2.4,1.5l1.6,3.2c0.1,0.1,0.1,0.2,0.4,0.2h0.3
		c0.2,0,0.2-0.1,0.1-0.2L405.6,140.7z M403.8,138.8h-3.9v-4.9h3.9c1.6,0,2.5,0.9,2.5,2.5C406.3,137.9,405.4,138.8,403.8,138.8z"/>
	<path class="st0" d="M415.5,138.4c-1.8-0.2-3.5-0.5-3.5-2.3c0-1.5,1.2-2.4,3.2-2.4c1.8,0,2.8,0.7,3.5,2.1c0.1,0.1,0.1,0.1,0.3,0.1
		l0.3-0.1c0.1,0,0.2-0.1,0.1-0.3c-0.8-1.7-2-2.4-4.1-2.4c-2.5,0-3.9,1.2-3.9,3.1c0,2.4,2.1,2.8,4.1,3c1.7,0.2,3.3,0.4,3.3,2.3
		c0,1.7-1.2,2.5-3.4,2.5c-1.8,0-2.9-0.7-3.6-2.3c-0.1-0.2-0.1-0.2-0.3-0.1l-0.3,0.1c-0.2,0.1-0.2,0.1-0.1,0.3c0.8,1.9,2,2.8,4.2,2.8
		c2.7,0,4.1-1.2,4.1-3.2C419.4,139,417.4,138.6,415.5,138.4z"/>
	<path class="st0" d="M151.9,52.6h2.7c1.4,0,1.8-0.5,1.8-1.8V25.1c0-4.2-0.3-8.3-1.1-13.4h0.4c1.7,5,3.1,8,5.3,11.8l9.2,16.2
		c0.6,1.1,1.1,1.4,2.2,1.4h1.8c1.1,0,1.6-0.4,2.2-1.4l9-16.1c2.1-3.8,3.9-7.2,5.7-11.9h0.4c-0.9,5-1.3,9.4-1.3,13.4v25.7
		c0,1.4,0.4,1.8,1.8,1.8h2.8c1.3,0,1.8-0.5,1.8-1.8V4c0-1.3-0.5-1.8-1.8-1.8h-2.7c-1.5,0-1.9,0.3-2.6,1.5l-16.3,29L157.1,3.6
		c-0.6-1.1-1.1-1.4-2.6-1.4h-2.5c-1.3,0-1.8,0.5-1.8,1.8v46.8C150.1,52.1,150.6,52.6,151.9,52.6z"/>
	<path class="st0" d="M220.5,53.7c8.2,0,12.8-3,15.3-7.3c0.8-1.2,0.6-2.1-0.6-2.8l-1.9-1c-1.3-0.7-1.9-0.6-2.8,0.6
		c-1.8,3-4.8,4.9-9.9,4.9c-6.3,0-9.5-3.1-9.5-8.5v-3.4h23.2c2,0,2.6-1,2.6-2.5v-4.1c0-8.4-5.1-14.7-16.1-14.7
		c-10.5,0-16.1,5.6-16.1,15.2v8.8C204.7,47.5,209.4,53.7,220.5,53.7z M211.1,29.2c0-5.5,3.3-9,9.7-9c6.5,0,9.7,3.4,9.7,9v2.1h-19.5
		V29.2z"/>
	<path class="st0" d="M247,9.9h0.4c2.6,0,3.4-0.9,3.4-3.4V5.9c0-2.6-0.8-3.4-3.4-3.4H247c-2.6,0-3.4,0.9-3.4,3.4v0.6
		C243.5,9.1,244.4,9.9,247,9.9z"/>
	<path class="st0" d="M248.7,15.9h-3c-1.3,0-1.7,0.4-1.7,1.7v33.3c0,1.3,0.4,1.7,1.7,1.7h3c1.3,0,1.7-0.4,1.7-1.7V17.6
		C250.4,16.3,249.9,15.9,248.7,15.9z"/>
	<path class="st0" d="M261.2,52.6h2.9c1.3,0,1.7-0.4,1.7-1.7V1.7c0-1.3-0.4-1.7-1.7-1.7h-2.9c-1.3,0-1.7,0.4-1.7,1.7v49.2
		C259.5,52.2,259.9,52.6,261.2,52.6z"/>
	<path class="st0" d="M276.9,52.6h2.9c1.3,0,1.7-0.4,1.7-1.7V1.7c0-1.3-0.4-1.7-1.7-1.7h-2.9c-1.3,0-1.7,0.4-1.7,1.7v49.2
		C275.2,52.2,275.6,52.6,276.9,52.6z"/>
	<path class="st0" d="M305.1,53.7c8.2,0,12.8-3,15.3-7.3c0.8-1.2,0.6-2.1-0.6-2.8l-1.9-1c-1.3-0.7-1.9-0.6-2.8,0.6
		c-1.8,3-4.8,4.9-9.9,4.9c-6.3,0-9.5-3.1-9.5-8.5v-3.4h23.2c2,0,2.6-1,2.6-2.5v-4.1c0-8.4-5.1-14.7-16.1-14.7
		c-10.5,0-16.1,5.6-16.1,15.2v8.8C289.3,47.5,294,53.7,305.1,53.7z M295.6,29.2c0-5.5,3.3-9,9.7-9c6.5,0,9.7,3.4,9.7,9v2.1h-19.5
		V29.2z"/>
	<path class="st0" d="M342.7,53.7c6.6,0,10.7-1.3,13.6-2.4c2.2-0.9,2.7-1.8,2.7-4V17.6c0-1.3-0.4-1.7-1.7-1.7h-2.9
		c-1.3,0-1.7,0.4-1.7,1.7V45c0,0.7-0.1,1.2-1.1,1.6c-2.1,0.6-4.5,1.2-8,1.2c-6.1,0-9-2.8-9-8.5V17.6c0-1.3-0.4-1.7-1.6-1.7h-3
		c-1.3,0-1.7,0.4-1.7,1.7v22C328.3,48.4,332.7,53.7,342.7,53.7z"/>
	<path class="st0" d="M373.9,50.9V23.3c0-0.6,0.1-1.1,1-1.4c2.1-0.6,4.7-1.2,8.2-1.2h2.5c1.3,0,1.7-0.4,1.7-1.7v-2.4
		c0-1.3-0.4-1.7-1.7-1.7h-2.3c-6.3,0.1-10.4,1.2-13,2.2c-2.2,0.9-2.7,1.8-2.7,4v29.8c0,1.3,0.4,1.7,1.6,1.7h3
		C373.5,52.6,373.9,52.2,373.9,50.9z"/>
	<path class="st0" d="M405.5,53.7c9.9,0,14.9-4.6,14.9-11.4c0-8.4-6-10.2-14.1-10.9c-5.9-0.5-9.7-1.1-9.7-5.6c0-3.4,2.6-5.1,8.1-5.1
		s7.7,1.8,9.1,4.6c0.7,1.1,1.1,1.4,2.3,0.8l2.4-1c1.1-0.5,1.5-1.2,0.9-2.5c-2.1-4.6-6.6-7.7-14.9-7.7c-9.5,0-14.3,4.4-14.3,11
		c0,9.2,7.3,10.4,14.4,11.1c6,0.6,9.5,1.3,9.5,5.6c0,3.5-2.8,5.4-8.9,5.4c-5,0-8.2-1.4-9.6-5.1c-0.6-1.3-1.1-1.4-2.3-1.1l-2.4,0.9
		c-1.3,0.4-1.6,1.1-1.1,2.3C392.1,50.7,397.4,53.7,405.5,53.7z"/>
	<path class="st0" d="M179.9,87.7v-0.2c4.1-2,6.1-5.6,6.1-11.1c0-8.5-5.3-13.1-14.1-13.1h-19.9c-1.3,0-1.8,0.5-1.8,1.8v46.8
		c0,1.4,0.5,1.8,1.8,1.8h20.5c9.1,0,15.3-4.8,15.3-13.7C187.8,93.4,184.9,89.2,179.9,87.7z M157,69.7h14.1c5.1,0,7.9,2.6,7.9,7.7
		s-2.8,7.6-7.9,7.6H157V69.7z M172.3,107.4H157V91.2h15.3c5.3,0,8.2,2.8,8.2,8.1C180.5,104.7,177.6,107.4,172.3,107.4z"/>
	<path class="st0" d="M193.4,67.1v0.6c0,2.6,0.9,3.4,3.4,3.4h0.4c2.6,0,3.4-0.9,3.4-3.4v-0.6c0-2.6-0.8-3.4-3.4-3.4h-0.4
		C194.2,63.7,193.4,64.5,193.4,67.1z"/>
	<path class="st0" d="M200.2,78.8c0-1.3-0.4-1.7-1.7-1.7h-3c-1.3,0-1.7,0.4-1.7,1.7V112c0,1.3,0.4,1.7,1.7,1.7h3
		c1.3,0,1.7-0.4,1.7-1.7V78.8z"/>
	<path class="st0" d="M222.4,76c-10.5,0-16.1,5.6-16.1,15.2v8.8c0,8.7,4.7,14.8,15.8,14.8c8.2,0,12.8-3,15.3-7.3
		c0.8-1.2,0.6-2.1-0.6-2.8l-1.9-1c-1.3-0.7-1.9-0.6-2.8,0.6c-1.8,3-4.8,4.9-9.9,4.9c-6.3,0-9.5-3.1-9.5-8.5v-3.4h23.2
		c2,0,2.6-1,2.6-2.5v-4.1C238.4,82.3,233.3,76,222.4,76z M232.1,92.4h-19.5v-2.1c0-5.5,3.3-9,9.7-9c6.5,0,9.7,3.4,9.7,9V92.4z"/>
	<path class="st0" d="M274.7,90.1c0-8.8-4.5-14.1-14.4-14.1c-6.6,0-10.8,1.3-13.6,2.4c-2.2,0.9-2.7,1.8-2.7,4V112
		c0,1.3,0.4,1.7,1.6,1.7h3c1.3,0,1.7-0.4,1.7-1.7V84.4c0-0.6,0.1-1,0.9-1.3c2-0.6,4.8-1.3,8.2-1.3c6.1,0,8.9,2.8,8.9,8.5V112
		c0,1.3,0.4,1.7,1.7,1.7h3c1.3,0,1.7-0.4,1.7-1.7V90.1z"/>
	<path class="st0" d="M296.4,92.5c-5.9-0.5-9.7-1.1-9.7-5.6c0-3.4,2.6-5.1,8.1-5.1s7.7,1.8,9.1,4.6c0.7,1.1,1.1,1.4,2.3,0.8l2.4-1
		c1.1-0.5,1.5-1.2,0.9-2.5c-2.1-4.6-6.6-7.7-14.9-7.7c-9.5,0-14.3,4.4-14.3,11c0,9.2,7.3,10.4,14.4,11.1c6,0.6,9.5,1.3,9.5,5.6
		c0,3.5-2.8,5.4-8.9,5.4c-5,0-8.2-1.4-9.6-5.1c-0.6-1.3-1.1-1.4-2.3-1.1l-2.4,0.9c-1.3,0.4-1.6,1.1-1.1,2.3
		c2.2,5.8,7.5,8.7,15.6,8.7c9.9,0,14.9-4.6,14.9-11.4C310.5,95.1,304.5,93.3,296.4,92.5z"/>
	<path class="st0" d="M319,106.4h-0.4c-2.8,0-3.6,0.9-3.6,3.6v0.6c0,2.8,0.9,3.6,3.6,3.6h0.4c2.8,0,3.6-0.9,3.6-3.6v-0.6
		C322.6,107.4,321.8,106.4,319,106.4z"/>
	<path class="st0" d="M350.6,63.3h-19.1c-0.7,0-0.9,0.2-0.9,0.9v48.6c0,0.7,0.2,0.9,0.9,0.9h1.5c0.6,0,0.9-0.2,0.9-0.9V94.1h16.8
		c9.7,0,15.7-5.8,15.7-15.3C366.3,69.1,360.2,63.3,350.6,63.3z M350.3,91.1h-16.5V66.4h16.5c7.7,0,12.6,4.6,12.6,12.4
		C362.9,86.5,358,91.1,350.3,91.1z"/>
	<path class="st0" d="M389.8,78.3v-1.1c0-0.6-0.2-0.9-0.8-0.9h-2.2c-6.1,0.1-10,1.2-12.6,2.3c-2.1,0.9-2.7,1.7-2.7,3.9v30.4
		c0,0.6,0.3,0.9,0.9,0.9h1.4c0.6,0,0.8-0.2,0.8-0.9V83.3c0-1.1,0.1-1.7,1.5-2.3c2.3-0.9,6-1.8,10.7-1.8h2.3
		C389.6,79.1,389.8,78.9,389.8,78.3z"/>
	<path class="st0" d="M406.1,76.3c-9.2,0-15.2,4.8-15.2,12.5v13.5c0,7.7,6,12.4,15.2,12.4c9.4,0,15.3-4.7,15.3-12.4V88.8
		C421.3,81.1,415.4,76.3,406.1,76.3z M418.3,102.3c0,6-4.8,9.7-12.2,9.7c-7.2,0-12.2-3.7-12.2-9.7V88.7c0-6,4.9-9.7,12.2-9.7
		c7.4,0,12.2,3.7,12.2,9.7V102.3z"/>
</g>
</svg>
