<svg xmlns="http://www.w3.org/2000/svg" xmlns:xlink="http://www.w3.org/1999/xlink" viewBox="0 0 420.4 114.9"><defs><style>.cls-1{fill:url(#Dégradé_sans_nom_4);}.cls-2{fill:url(#Dégradé_sans_nom_7);}.cls-3{fill:url(#Dégradé_sans_nom_7-2);}.cls-4{fill:url(#Dégradé_sans_nom_4-2);}.cls-5{fill:url(#Dégradé_sans_nom_7-3);}.cls-6{fill:url(#Dégradé_sans_nom_6);}.cls-7{fill:url(#Dégradé_sans_nom_7-4);}.cls-8{fill:#fff;}.cls-9{fill:#a3195b;}</style><linearGradient id="Dégradé_sans_nom_4" x1="6568.58" y1="93.24" x2="6616.05" y2="59.58" gradientTransform="matrix(1, 0, 0, -1, -6453.38, 146)" gradientUnits="userSpaceOnUse"><stop offset="0" stop-color="#702283"/><stop offset="1" stop-color="#d60b52"/></linearGradient><linearGradient id="Dégradé_sans_nom_7" x1="-1048.71" y1="97.6" x2="-1048.71" y2="141.9" gradientTransform="translate(-1017.76 146) rotate(180)" gradientUnits="userSpaceOnUse"><stop offset="0.13" stop-color="#702283"/><stop offset="1" stop-color="#d60b52"/></linearGradient><linearGradient id="Dégradé_sans_nom_7-2" x1="-917.17" y1="-7.76" x2="-1200.35" y2="183.83" xlink:href="#Dégradé_sans_nom_7"/><linearGradient id="Dégradé_sans_nom_4-2" x1="6556.37" y1="104.33" x2="6626.9" y2="54.32" xlink:href="#Dégradé_sans_nom_4"/><linearGradient id="Dégradé_sans_nom_7-3" x1="-915.63" y1="-5.49" x2="-1198.82" y2="186.1" xlink:href="#Dégradé_sans_nom_7"/><linearGradient id="Dégradé_sans_nom_6" x1="-1038.21" y1="73" x2="-1038.21" y2="131.8" gradientTransform="translate(-1017.76 146) rotate(180)" gradientUnits="userSpaceOnUse"><stop offset="0" stop-color="#555759"/><stop offset="1" stop-color="#8a8a8d"/></linearGradient><linearGradient id="Dégradé_sans_nom_7-4" x1="-914.65" y1="-4.03" x2="-1197.83" y2="187.56" xlink:href="#Dégradé_sans_nom_7"/></defs><title>Fichier 3</title><g id="Calque_2" data-name="Calque 2"><g id="Calque_1-2" data-name="Calque 1"><polygon class="cls-1" points="116 27.1 81.7 53 130.3 89.7 130.3 38.3 116 27.1"/><polygon class="cls-2" points="48.7 22.1 48.7 4.1 13.2 4.1 13.2 48.4 48.7 22.1"/><polygon class="cls-3" points="82.5 0.7 40.9 32.2 40.9 73 0 73 0 114.9 81.7 53 81.1 52.6 82.5 0.7"/><polygon class="cls-4" points="82.5 0.7 81.1 52.6 81.7 53 116 27.1 82.5 0.7"/><polygon class="cls-5" points="82.5 0.7 81.1 52.6 81.7 53 116 27.1 82.5 0.7"/><polygon class="cls-6" points="40.9 32.2 0 63 0 73 40.9 73 40.9 32.2"/><polygon class="cls-7" points="40.9 32.2 0 63 0 73 40.9 73 40.9 32.2"/><path class="cls-8" d="M195.8,4V50.8c0,1.4-.5,1.8-1.8,1.8h-2.8c-1.4,0-1.8-.5-1.8-1.8V25.1a75.47,75.47,0,0,1,1.3-13.4h-.4a77.77,77.77,0,0,1-5.7,11.9l-9,16.1a2.24,2.24,0,0,1-2.2,1.4h-1.8a2.12,2.12,0,0,1-2.2-1.4l-9.2-16.2a58.87,58.87,0,0,1-5.3-11.8h-.4a72.45,72.45,0,0,1,1.1,13.4V50.8c0,1.4-.4,1.8-1.8,1.8h-2.7c-1.3,0-1.8-.5-1.8-1.8V4c0-1.3.5-1.8,1.8-1.8h2.5c1.6,0,2,.3,2.6,1.4l16.3,29.1,16.3-29c.6-1.2,1.1-1.5,2.6-1.5h2.7C195.3,2.1,195.8,2.6,195.8,4Z"/><path class="cls-8" d="M219.8,14.9c10.9,0,16.1,6.3,16.1,14.7v4.1c0,1.5-.6,2.5-2.6,2.5H210.1v3.4c0,5.4,3.3,8.5,9.5,8.5,5,0,8.1-1.9,9.9-4.9.9-1.2,1.5-1.4,2.8-.6l1.9,1c1.3.6,1.4,1.6.6,2.8-2.5,4.3-7.1,7.3-15.3,7.3-11.1,0-15.8-6.1-15.8-14.8V30.1C203.7,20.5,209.3,14.9,219.8,14.9Zm0,5.4c-6.4,0-9.7,3.4-9.7,9v2.1h19.5V29.3C229.5,23.7,226.3,20.3,219.8,20.3Z"/><path class="cls-8" d="M249.8,5.9v.6c0,2.6-.8,3.4-3.4,3.4H246c-2.6,0-3.4-.8-3.4-3.4V5.9c0-2.6.9-3.4,3.4-3.4h.4C249,2.5,249.8,3.3,249.8,5.9Zm-.4,11.7V50.9c0,1.3-.4,1.7-1.7,1.7h-3c-1.3,0-1.7-.4-1.7-1.7V17.6c0-1.3.4-1.7,1.7-1.7h3C248.9,15.9,249.4,16.3,249.4,17.6Z"/><path class="cls-8" d="M263.1,52.6h-2.9c-1.3,0-1.7-.4-1.7-1.7V1.7c0-1.3.4-1.7,1.7-1.7h2.9c1.3,0,1.7.4,1.7,1.7V50.9C264.8,52.2,264.4,52.6,263.1,52.6Z"/><path class="cls-8" d="M278.8,52.6h-2.9c-1.3,0-1.7-.4-1.7-1.7V1.7c0-1.3.4-1.7,1.7-1.7h2.9c1.3,0,1.7.4,1.7,1.7V50.9C280.5,52.2,280.1,52.6,278.8,52.6Z"/><path class="cls-8" d="M304.4,14.9c10.9,0,16.1,6.3,16.1,14.7v4.1c0,1.5-.6,2.5-2.6,2.5H294.7v3.4c0,5.4,3.3,8.5,9.5,8.5,5,0,8.1-1.9,9.9-4.9.9-1.2,1.5-1.4,2.8-.6l1.9,1c1.3.6,1.4,1.6.6,2.8-2.5,4.3-7.1,7.3-15.3,7.3-11.1,0-15.8-6.1-15.8-14.8V30.1C288.3,20.5,293.9,14.9,304.4,14.9Zm0,5.4c-6.4,0-9.7,3.4-9.7,9v2.1h19.5V29.3C314.1,23.7,310.8,20.3,304.4,20.3Z"/><path class="cls-8" d="M357.9,17.6V47.2c0,2.2-.5,3.1-2.7,4a35.46,35.46,0,0,1-13.6,2.4c-9.9,0-14.4-5.3-14.4-14.1v-22c0-1.3.4-1.7,1.7-1.7h3c1.2,0,1.6.4,1.6,1.7V39.2c0,5.6,2.8,8.5,9,8.5a26.45,26.45,0,0,0,8-1.2,1.54,1.54,0,0,0,1.1-1.6V17.6c0-1.3.4-1.7,1.7-1.7h2.9C357.5,15.9,357.9,16.3,357.9,17.6Z"/><path class="cls-8" d="M384.6,14.9c1.3,0,1.7.4,1.7,1.7V19c0,1.3-.4,1.7-1.7,1.7h-2.5a28.5,28.5,0,0,0-8.2,1.2c-.9.4-1,.8-1,1.4V50.9c0,1.3-.4,1.7-1.7,1.7h-3c-1.2,0-1.6-.4-1.6-1.7V21c0-2.2.5-3.1,2.7-4a37.79,37.79,0,0,1,13-2.2h2.3Z"/><path class="cls-8" d="M403.6,14.9c8.2,0,12.7,3.1,14.9,7.7.6,1.3.3,2-.9,2.5l-2.4,1c-1.3.6-1.6.4-2.3-.8-1.4-2.8-3.6-4.6-9.1-4.6s-8.1,1.7-8.1,5.1c0,4.5,3.8,5.1,9.7,5.6,8.1.8,14.1,2.6,14.1,10.9,0,6.8-4.9,11.4-14.9,11.4-8.1,0-13.4-2.9-15.6-8.7-.5-1.1-.2-1.8,1.1-2.3l2.4-.9c1.1-.4,1.7-.2,2.3,1.1,1.4,3.7,4.6,5.1,9.6,5.1,6,0,8.9-1.9,8.9-5.4,0-4.3-3.5-5-9.5-5.6-7.1-.7-14.4-1.9-14.4-11.1C389.3,19.3,394.1,14.9,403.6,14.9Z"/><path class="cls-9" d="M185,76.4c0,5.5-2,9.1-6.1,11.1v.2c5,1.5,8,5.8,8,12.4,0,8.9-6.3,13.7-15.3,13.7H151.1c-1.3,0-1.8-.5-1.8-1.8V65.1c0-1.3.5-1.8,1.8-1.8H171C179.7,63.3,185,67.9,185,76.4Zm-14.9-6.7H156V85h14.1c5.1,0,7.9-2.5,7.9-7.6S175.2,69.7,170.1,69.7Zm1.2,21.5H156v16.1h15.3c5.3,0,8.2-2.7,8.2-8S176.6,91.2,171.3,91.2Z"/><path class="cls-9" d="M199.6,67.1v.6c0,2.6-.8,3.4-3.4,3.4h-.4c-2.6,0-3.4-.8-3.4-3.4v-.6c0-2.6.9-3.4,3.4-3.4h.4C198.8,63.7,199.6,64.5,199.6,67.1Zm-.4,11.7V112c0,1.3-.4,1.7-1.7,1.7h-3c-1.3,0-1.7-.4-1.7-1.7V78.8c0-1.3.4-1.7,1.7-1.7h3C198.8,77.1,199.2,77.5,199.2,78.8Z"/><path class="cls-9" d="M221.4,76c10.9,0,16.1,6.3,16.1,14.7v4.1c0,1.5-.6,2.5-2.6,2.5H211.7v3.4c0,5.4,3.3,8.5,9.5,8.5,5,0,8.1-1.9,9.9-4.9.9-1.2,1.5-1.4,2.8-.6l1.9,1c1.3.6,1.4,1.6.6,2.8-2.5,4.3-7.1,7.3-15.3,7.3-11.1,0-15.8-6.1-15.8-14.8V91.2C205.3,81.6,210.8,76,221.4,76Zm0,5.4c-6.4,0-9.7,3.4-9.7,9v2.1h19.5V90.4C231.1,84.8,227.8,81.4,221.4,81.4Z"/><path class="cls-9" d="M259.3,76c9.9,0,14.4,5.3,14.4,14.1v22c0,1.3-.4,1.7-1.7,1.7h-3c-1.3,0-1.7-.4-1.7-1.7V90.3c0-5.6-2.8-8.5-8.9-8.5a24.15,24.15,0,0,0-8.2,1.3,1.25,1.25,0,0,0-.9,1.3V112c0,1.3-.4,1.7-1.7,1.7h-3c-1.2,0-1.6-.4-1.6-1.7V82.4c0-2.2.5-3.1,2.7-4A35.46,35.46,0,0,1,259.3,76Z"/><path class="cls-9" d="M293.7,76c8.2,0,12.7,3.1,14.9,7.7.6,1.3.3,2-.9,2.5l-2.4,1c-1.3.6-1.6.4-2.3-.8-1.3-2.8-3.6-4.6-9.1-4.6s-8.1,1.7-8.1,5.1c0,4.5,3.8,5.1,9.7,5.6,8.1.8,14.1,2.6,14.1,10.9,0,6.8-4.9,11.4-14.9,11.4-8.1,0-13.4-2.9-15.6-8.7-.5-1.1-.2-1.8,1.1-2.3l2.4-.9c1.1-.4,1.7-.2,2.3,1.1,1.4,3.7,4.6,5.1,9.6,5.1,6,0,8.9-1.9,8.9-5.4,0-4.3-3.5-5-9.5-5.6-7.1-.7-14.4-1.9-14.4-11.1C279.4,80.4,284.3,76,293.7,76Z"/><path class="cls-8" d="M321.6,110.1v.6c0,2.7-.9,3.6-3.6,3.6h-.4c-2.8,0-3.6-.8-3.6-3.6v-.6c0-2.7.9-3.6,3.6-3.6h.4C320.8,106.4,321.6,107.4,321.6,110.1Z"/><path class="cls-8" d="M365.3,78.8c0,9.6-6,15.3-15.7,15.3H332.8v18.7c0,.7-.2.9-.9.9h-1.5c-.7,0-.9-.2-.9-.9V64.2c0-.7.2-.9.9-.9h19.1C359.2,63.3,365.3,69.1,365.3,78.8Zm-3.4,0c0-7.8-4.8-12.4-12.6-12.4H332.8V91.1h16.5C357,91.1,361.9,86.5,361.9,78.8Z"/><path class="cls-8" d="M388,76.3c.6,0,.8.2.8.9v1.1c0,.6-.2.9-.8.9h-2.3A30.06,30.06,0,0,0,375,81a2.15,2.15,0,0,0-1.5,2.3v29.6c0,.6-.2.9-.8.9h-1.4c-.6,0-.9-.2-.9-.9V82.5c0-2.2.6-3,2.7-3.9a33,33,0,0,1,12.6-2.3Z"/><path class="cls-8" d="M405.1,76.3c9.4,0,15.3,4.8,15.3,12.5v13.5c0,7.7-5.9,12.4-15.3,12.4-9.2,0-15.2-4.7-15.2-12.4V88.8C389.9,81.1,395.8,76.3,405.1,76.3Zm0,2.8c-7.2,0-12.2,3.7-12.2,9.7v13.6c0,6,4.9,9.7,12.2,9.7s12.2-3.7,12.2-9.7V88.7C417.3,82.8,412.5,79.1,405.1,79.1Z"/></g></g></svg>